<?xml version="1.0" standalone="no"?>
<!DOCTYPE svg PUBLIC "-//W3C//DTD SVG 1.1//EN" "http://www.w3.org/Graphics/SVG/1.1/DTD/svg11.dtd" >
<svg>
<metadata>
Created by FontForge 20090914 at Wed Nov 21 21:04:57 2018
 By www-data
Copyright Damien Guard 2013
</metadata>
<defs>
<font id="Chicago-12" horiz-adv-x="512" >
  <font-face 
    font-family="Chicago 12"
    font-weight="400"
    font-stretch="normal"
    units-per-em="1024"
    panose-1="0 0 4 0 0 0 0 0 0 0"
    ascent="819"
    descent="-205"
    x-height="448"
    cap-height="576"
    bbox="0 -192 640 704"
    underline-thickness="51"
    underline-position="126"
    unicode-range="U+0020-U+2122"
  />
<missing-glyph horiz-adv-x="507" 
d="M373 50l-152 218l-152 -218h304zM50 69l152 219l-152 218v-437v0zM393 69v437l-153 -218l153 -219v0zM221 307l152 219h-304l152 -219v0zM0 0v576h443v-576h-443z" />
    <glyph glyph-name=".notdef" horiz-adv-x="507" 
d="M373 50l-152 218l-152 -218h304zM50 69l152 219l-152 218v-437v0zM393 69v437l-153 -218l153 -219v0zM221 307l152 219h-304l152 -219v0zM0 0v576h443v-576h-443z" />
    <glyph glyph-name="space" unicode=" " horiz-adv-x="192" 
 />
    <glyph glyph-name="exclam" unicode="!" horiz-adv-x="256" 
d="M0 0v128h128v-128h-128zM0 192v384h128v-384h-128z" />
    <glyph glyph-name="quotedbl" unicode="&#x22;" horiz-adv-x="320" 
d="M0 384v192h64v-192h-64zM128 384v192h64v-192h-64z" />
    <glyph glyph-name="numbersign" unicode="#" horiz-adv-x="640" 
d="M320 320v128h-128v-128h128zM64 128v128h-64v64h128v128h-64v64h128v128h64v-128h128v128h64v-128h64v-64h-128v-128h64v-64h-128v-128h-64v128h-128v-128h-64z" />
    <glyph glyph-name="dollar" unicode="$" horiz-adv-x="448" 
d="M0 64v64h64v-64h-64zM256 448v64h64v-64h-64zM128 -64v64h-64v64h64v192h-64v64h-64v192h64v-64h64v64h-64v64h64v64h64v-64h64v-64h-64v-192h64v-64h64v-192h-64v64h-64v-64h64v-64h-64v-64h-64z" />
    <glyph glyph-name="percent" unicode="%" horiz-adv-x="704" 
d="M384 -64v64h128v-64h-128zM128 -64v128h64v-128h-64zM320 0v128h64v-128h-64zM512 0v128h64v-128h-64zM192 64v128h64v-128h-64zM384 128v64h128v-64h-128zM256 192v128h64v-128h-64zM64 320v64h128v-64h-128zM320 320v128h64v-128h-64zM0 384v128h64v-128h-64zM192 384
v128h64v-128h-64zM64 512v64h128v-64h-128zM384 448v64h-128v64h192v-128h-64z" />
    <glyph glyph-name="ampersand" unicode="&#x26;" horiz-adv-x="640" 
d="M448 320v128h64v-128h-64zM64 0v64h-64v256h64v64h-64v128h64v64h256v-64h64v-128h-128v128h-128v-128h64v-64h-64v-256h128v256h192v-64h-64v-192h-64v-64h-256z" />
    <glyph glyph-name="quotesingle" unicode="'" horiz-adv-x="192" 
d="M0 384v192h64v-192h-64z" />
    <glyph glyph-name="parenleft" unicode="(" horiz-adv-x="320" 
d="M128 -64v64h64v-64h-64zM64 0v64h-64v448h64v64h64v-576h-64zM128 576v64h64v-64h-64z" />
    <glyph glyph-name="parenright" unicode=")" horiz-adv-x="320" 
d="M0 -64v64h64v-64h-64zM64 0v576h64v-64h64v-448h-64v-64h-64zM0 576v64h64v-64h-64z" />
    <glyph glyph-name="asterisk" unicode="*" horiz-adv-x="448" 
d="M0 320v64h64v-64h-64zM256 320v64h64v-64h-64zM0 448v64h64v-64h-64zM256 448v64h64v-64h-64zM128 256v128h-64v64h64v128h64v-128h64v-64h-64v-128h-64z" />
    <glyph glyph-name="plus" unicode="+" horiz-adv-x="448" 
d="M128 128v128h-128v64h128v128h64v-128h128v-64h-128v-128h-64z" />
    <glyph glyph-name="comma" unicode="," horiz-adv-x="256" 
d="M64 -128v64h64v-64h-64zM128 -64v64h-64v128h128v-192h-64z" />
    <glyph glyph-name="hyphen" unicode="-" horiz-adv-x="448" 
d="M0 256v64h320v-64h-320z" />
    <glyph glyph-name="period" unicode="." horiz-adv-x="256" 
d="M64 0v128h128v-128h-128z" />
    <glyph glyph-name="slash" unicode="/" horiz-adv-x="448" 
d="M0 0v128h64v-128h-64zM64 128v128h64v-128h-64zM128 256v128h64v-128h-64zM192 384v128h64v-128h-64zM256 512v128h64v-128h-64z" />
    <glyph glyph-name="zero" unicode="0" 
d="M256 64v192h-64v-64h-64v-128h128zM192 320v64h64v128h-128v-192h64zM64 0v64h-64v448h64v64h256v-64h64v-448h-64v-64h-256z" />
    <glyph glyph-name="one" unicode="1" horiz-adv-x="320" 
d="M64 0v448h-64v64h64v64h128v-576h-128z" />
    <glyph glyph-name="two" unicode="2" 
d="M0 448v64h64v-64h-64zM0 0v128h64v64h64v64h64v64h64v192h-192v64h256v-64h64v-192h-64v-64h-64v-64h-64v-64h-64v-64h256v-64h-384z" />
    <glyph glyph-name="three" unicode="3" 
d="M0 64v64h64v-64h-64zM64 0v64h192v256h-192v64h64v64h64v64h-192v64h384v-64h-64v-64h-64v-64h64v-64h64v-256h-64v-64h-256z" />
    <glyph glyph-name="four" unicode="4" horiz-adv-x="576" 
d="M64 320v64h64v-64h-64zM128 384v64h64v-64h-64zM256 0v192h-256v128h64v-64h192v192h-64v64h64v64h128v-320h64v-64h-64v-192h-128z" />
    <glyph glyph-name="five" unicode="5" 
d="M0 64v64h64v-64h-64zM64 0v64h192v256h-256v256h384v-64h-256v-128h192v-64h64v-256h-64v-64h-256z" />
    <glyph glyph-name="six" unicode="6" 
d="M256 64v256h-128v-256h128zM64 0v64h-64v384h64v64h64v64h192v-64h-128v-64h-64v-64h192v-64h64v-256h-64v-64h-256z" />
    <glyph glyph-name="seven" unicode="7" 
d="M128 0v256h64v64h64v192h-256v64h384v-256h-64v-64h-64v-256h-128z" />
    <glyph glyph-name="eight" unicode="8" 
d="M256 64v256h-128v-256h128zM256 384v128h-128v-128h128zM64 0v64h-64v256h64v64h-64v128h64v64h256v-64h64v-128h-64v-64h64v-256h-64v-64h-256z" />
    <glyph glyph-name="nine" unicode="9" 
d="M256 256v256h-128v-256h128zM64 0v64h128v64h64v64h-192v64h-64v256h64v64h256v-64h64v-384h-64v-64h-64v-64h-192z" />
    <glyph glyph-name="colon" unicode=":" horiz-adv-x="256" 
d="M0 0v128h128v-128h-128zM0 320v128h128v-128h-128z" />
    <glyph glyph-name="semicolon" unicode=";" horiz-adv-x="256" 
d="M0 -128v64h64v-64h-64zM64 -64v64h-64v128h128v-192h-64zM0 320v128h128v-128h-128z" />
    <glyph glyph-name="less" unicode="&#x3c;" horiz-adv-x="448" 
d="M192 64v64h-64v64h-64v64h-64v64h64v64h64v64h64v64h128v-64h-64v-64h-64v-64h-64v-64h64v-64h64v-64h64v-64h-128z" />
    <glyph glyph-name="equal" unicode="=" horiz-adv-x="448" 
d="M0 192v64h320v-64h-320zM0 320v64h320v-64h-320z" />
    <glyph glyph-name="greater" unicode="&#x3e;" horiz-adv-x="448" 
d="M0 64v64h64v64h64v64h64v64h-64v64h-64v64h-64v64h128v-64h64v-64h64v-64h64v-64h-64v-64h-64v-64h-64v-64h-128z" />
    <glyph glyph-name="question" unicode="?" 
d="M128 0v128h128v-128h-128zM0 448v64h64v-64h-64zM128 192v128h64v64h64v128h-192v64h256v-64h64v-128h-64v-64h-64v-128h-128z" />
    <glyph glyph-name="at" unicode="@" horiz-adv-x="704" 
d="M128 0v64h320v-64h-320zM64 64v64h64v-64h-64zM192 128v64h128v-64h-128zM384 128v64h128v-64h-128zM128 192v128h64v-128h-64zM0 128v256h64v-256h-64zM320 192v128h-128v64h192v-192h-64zM512 192v192h64v-192h-64zM64 384v64h64v-64h-64zM448 384v64h64v-64h-64z
M128 448v64h320v-64h-320z" />
    <glyph glyph-name="A" unicode="A" 
d="M256 320v192h-128v-192h128zM0 0v512h64v64h256v-64h64v-512h-128v256h-128v-256h-128z" />
    <glyph glyph-name="B" unicode="B" 
d="M256 64v192h-128v-192h128zM256 320v192h-128v-192h128zM0 0v576h320v-64h64v-192h-64v-64h64v-192h-64v-64h-320z" />
    <glyph glyph-name="C" unicode="C" 
d="M320 64v64h64v-64h-64zM320 448v64h64v-64h-64zM64 0v64h-64v448h64v64h256v-64h-192v-448h192v-64h-256z" />
    <glyph glyph-name="D" unicode="D" 
d="M256 64v448h-128v-448h128zM0 0v576h320v-64h64v-448h-64v-64h-320z" />
    <glyph glyph-name="E" unicode="E" horiz-adv-x="448" 
d="M0 0v576h320v-64h-192v-192h128v-64h-128v-192h192v-64h-320z" />
    <glyph glyph-name="F" unicode="F" horiz-adv-x="448" 
d="M0 0v576h320v-64h-192v-192h128v-64h-128v-256h-128z" />
    <glyph glyph-name="G" unicode="G" 
d="M320 448v64h64v-64h-64zM64 0v64h-64v448h64v64h256v-64h-192v-448h128v192h-64v64h192v-256h-64v-64h-256z" />
    <glyph glyph-name="H" unicode="H" 
d="M0 0v576h128v-256h128v256h128v-576h-128v256h-128v-256h-128z" />
    <glyph glyph-name="I" unicode="I" horiz-adv-x="256" 
d="M0 0v576h128v-576h-128z" />
    <glyph glyph-name="J" unicode="J" 
d="M64 0v64h-64v192h128v-192h128v512h128v-512h-64v-64h-256z" />
    <glyph glyph-name="K" unicode="K" horiz-adv-x="576" 
d="M0 0v576h128v-192h64v64h64v64h64v64h128v-64h-64v-64h-64v-64h-64v-64h-64v-64h64v-64h64v-64h64v-64h64v-64h-128v64h-64v64h-64v64h-64v-192h-128z" />
    <glyph glyph-name="L" unicode="L" horiz-adv-x="448" 
d="M0 0v576h128v-512h192v-64h-320z" />
    <glyph glyph-name="M" unicode="M" horiz-adv-x="768" 
d="M0 0v576h64v-64h64v-64h64v-64h64v-64h128v64h64v64h64v64h64v64h64v-576h-128v320h-64v-64h-64v-64h-64v-64h-64v64h-64v64h-64v64h-64v-320h-64z" />
    <glyph glyph-name="N" unicode="N" horiz-adv-x="576" 
d="M0 0v576h64v-64h64v-64h64v-64h64v-64h64v-64h64v320h64v-576h-64v64h-64v64h-64v64h-64v64h-64v64h-64v-320h-64z" />
    <glyph glyph-name="O" unicode="O" 
d="M256 64v448h-128v-448h128zM64 0v64h-64v448h64v64h256v-64h64v-448h-64v-64h-256z" />
    <glyph glyph-name="P" unicode="P" 
d="M256 320v192h-128v-192h128zM0 0v576h320v-64h64v-192h-64v-64h-192v-256h-128z" />
    <glyph glyph-name="Q" unicode="Q" 
d="M256 64v448h-128v-448h128zM256 -64v64h-192v64h-64v448h64v64h256v-64h64v-448h-64v-64h64v-64h-128z" />
    <glyph glyph-name="R" unicode="R" 
d="M256 320v192h-128v-192h128zM0 0v576h320v-64h64v-192h-64v-64h64v-256h-128v256h-128v-256h-128z" />
    <glyph glyph-name="S" unicode="S" horiz-adv-x="448" 
d="M0 64v64h64v-64h-64zM256 448v64h64v-64h-64zM64 0v64h128v128h-64v64h-64v64h-64v192h64v64h192v-64h-128v-128h64v-64h64v-64h64v-192h-64v-64h-192z" />
    <glyph glyph-name="T" unicode="T" 
d="M128 0v512h-128v64h384v-64h-128v-512h-128z" />
    <glyph glyph-name="U" unicode="U" 
d="M64 0v64h-64v512h128v-512h128v512h128v-512h-64v-64h-256z" />
    <glyph glyph-name="V" unicode="V" 
d="M0 0v576h128v-512h128v-64h-256zM256 64v512h128v-448h-64v-64h-64z" />
    <glyph glyph-name="W" unicode="W" horiz-adv-x="768" 
d="M0 0v576h128v-512h128v512h128v-512h128v-64h-512zM512 64v512h128v-448h-64v-64h-64z" />
    <glyph glyph-name="X" unicode="X" 
d="M0 0v256h64v64h-64v256h128v-256h128v256h128v-256h-64v-64h64v-256h-128v256h-128v-256h-128z" />
    <glyph glyph-name="Y" unicode="Y" 
d="M128 0v256h-64v64h-64v256h128v-256h128v256h128v-256h-64v-64h-64v-256h-128z" />
    <glyph glyph-name="Z" unicode="Z" 
d="M0 0v192h64v64h64v64h64v64h64v128h-256v64h384v-192h-64v-64h-64v-64h-64v-64h-64v-128h256v-64h-384z" />
    <glyph glyph-name="bracketleft" unicode="[" horiz-adv-x="320" 
d="M0 -64v704h192v-64h-64v-576h64v-64h-192z" />
    <glyph glyph-name="backslash" unicode="\" horiz-adv-x="448" 
d="M256 0v128h64v-128h-64zM192 128v128h64v-128h-64zM128 256v128h64v-128h-64zM64 384v128h64v-128h-64zM0 512v128h64v-128h-64z" />
    <glyph glyph-name="bracketright" unicode="]" horiz-adv-x="320" 
d="M0 -64v64h64v576h-64v64h192v-704h-192z" />
    <glyph glyph-name="asciicircum" unicode="^" horiz-adv-x="448" 
d="M0 384v64h64v-64h-64zM256 384v64h64v-64h-64zM64 448v64h64v-64h-64zM192 448v64h64v-64h-64zM128 512v64h64v-64h-64z" />
    <glyph glyph-name="underscore" unicode="_" 
d="M0 0v64h384v-64h-384z" />
    <glyph glyph-name="grave" unicode="`" horiz-adv-x="320" 
d="M128 448v64h64v-64h-64zM64 512v64h64v-64h-64zM0 576v64h64v-64h-64z" />
    <glyph glyph-name="a" unicode="a" 
d="M256 64v192h-128v-192h128zM0 320v64h64v-64h-64zM64 0v64h-64v192h64v64h192v64h-192v64h256v-64h64v-384h-320z" />
    <glyph glyph-name="b" unicode="b" 
d="M256 64v320h-128v-320h128zM0 0v576h128v-128h192v-64h64v-320h-64v-64h-320z" />
    <glyph glyph-name="c" unicode="c" horiz-adv-x="448" 
d="M256 64v64h64v-64h-64zM256 320v64h64v-64h-64zM64 0v64h-64v320h64v64h192v-64h-128v-320h128v-64h-192z" />
    <glyph glyph-name="d" unicode="d" 
d="M256 64v320h-128v-320h128zM64 0v64h-64v320h64v64h192v128h128v-576h-320z" />
    <glyph glyph-name="e" unicode="e" 
d="M320 64v64h64v-64h-64zM256 256v128h-128v-128h128zM64 0v64h-64v320h64v64h256v-64h64v-192h-256v-128h192v-64h-256z" />
    <glyph glyph-name="f" unicode="f" horiz-adv-x="448" 
d="M64 0v384h-64v64h64v64h64v64h192v-64h-128v-64h64v-64h-64v-384h-128z" />
    <glyph glyph-name="g" unicode="g" 
d="M0 -128v64h64v-64h-64zM256 64v320h-128v-320h128zM64 -192v64h192v128h-192v64h-64v320h64v64h320v-576h-64v-64h-256z" />
    <glyph glyph-name="h" unicode="h" 
d="M0 0v576h128v-128h192v-64h64v-384h-128v384h-128v-384h-128z" />
    <glyph glyph-name="i" unicode="i" horiz-adv-x="256" 
d="M0 0v448h128v-448h-128zM0 512v64h128v-64h-128z" />
    <glyph glyph-name="j" unicode="j" horiz-adv-x="448" 
d="M0 -128v64h64v-64h-64zM64 -192v64h128v576h128v-576h-64v-64h-192zM192 512v64h128v-64h-128z" />
    <glyph glyph-name="k" unicode="k" 
d="M0 0v576h128v-256h64v64h64v64h128v-64h-64v-64h-64v-64h-64v-64h64v-64h64v-64h64v-64h-128v64h-64v64h-64v-128h-128z" />
    <glyph glyph-name="l" unicode="l" horiz-adv-x="256" 
d="M0 0v576h128v-576h-128z" />
    <glyph glyph-name="m" unicode="m" horiz-adv-x="768" 
d="M0 0v448h576v-64h64v-384h-128v384h-128v-384h-128v384h-128v-384h-128z" />
    <glyph glyph-name="n" unicode="n" 
d="M0 0v448h320v-64h64v-384h-128v384h-128v-384h-128z" />
    <glyph glyph-name="o" unicode="o" 
d="M256 64v320h-128v-320h128zM64 0v64h-64v320h64v64h256v-64h64v-320h-64v-64h-256z" />
    <glyph glyph-name="p" unicode="p" 
d="M256 64v320h-128v-320h128zM0 -128v576h320v-64h64v-320h-64v-64h-192v-128h-128z" />
    <glyph glyph-name="q" unicode="q" 
d="M256 64v320h-128v-320h128zM256 -128v128h-192v64h-64v320h64v64h320v-576h-128z" />
    <glyph glyph-name="r" unicode="r" horiz-adv-x="384" 
d="M0 0v448h128v-64h64v-64h-64v-320h-128zM192 384v64h128v-64h-128z" />
    <glyph glyph-name="s" unicode="s" horiz-adv-x="448" 
d="M0 64v64h64v-64h-64zM256 320v64h64v-64h-64zM64 0v64h128v64h-64v64h-64v64h-64v128h64v64h192v-64h-128v-64h64v-64h64v-64h64v-128h-64v-64h-192z" />
    <glyph glyph-name="t" unicode="t" horiz-adv-x="384" 
d="M128 0v64h-64v320h-64v64h64v128h128v-128h64v-64h-64v-320h64v-64h-128z" />
    <glyph glyph-name="u" unicode="u" 
d="M64 0v64h-64v384h128v-384h128v384h128v-448h-320z" />
    <glyph glyph-name="v" unicode="v" 
d="M0 0v448h128v-384h128v-64h-256zM256 64v384h128v-320h-64v-64h-64z" />
    <glyph glyph-name="w" unicode="w" horiz-adv-x="768" 
d="M0 0v448h128v-384h128v384h128v-384h128v-64h-512zM512 64v384h128v-320h-64v-64h-64z" />
    <glyph glyph-name="x" unicode="x" 
d="M0 0v192h64v64h-64v192h128v-192h128v192h128v-192h-64v-64h64v-192h-128v192h-128v-192h-128z" />
    <glyph glyph-name="y" unicode="y" 
d="M0 -128v64h64v-64h-64zM64 -192v64h192v128h-192v64h-64v384h128v-384h128v384h128v-576h-64v-64h-256z" />
    <glyph glyph-name="z" unicode="z" 
d="M0 0v128h64v64h64v64h64v64h64v64h-256v64h384v-128h-64v-64h-64v-64h-64v-64h-64v-64h256v-64h-384z" />
    <glyph glyph-name="braceleft" unicode="{" horiz-adv-x="320" 
d="M128 -64v64h64v-64h-64zM64 0v256h64v-256h-64zM0 256v64h64v-64h-64zM64 320v256h64v-256h-64zM128 576v64h64v-64h-64z" />
    <glyph glyph-name="bar" unicode="|" horiz-adv-x="192" 
d="M0 -64v704h64v-704h-64z" />
    <glyph glyph-name="braceright" unicode="}" horiz-adv-x="320" 
d="M0 -64v64h64v-64h-64zM64 0v256h64v-256h-64zM128 256v64h64v-64h-64zM64 320v256h64v-256h-64zM0 576v64h64v-64h-64z" />
    <glyph glyph-name="currency" unicode="&#xa4;" horiz-adv-x="704" 
d="M128 0v64h128v-64h-128zM320 0v64h128v-64h-128zM64 64v64h64v-64h-64zM256 64v64h64v-64h-64zM448 64v64h64v-64h-64zM512 128v64h-64v64h128v-128h-64zM384 256v128h64v-128h-64zM0 128v320h64v-320h-64zM64 448v64h192v-64h-192zM448 384v64h-128v64h192v-64h64v-64
h-128zM256 512v128h64v64h128v-64h-64v-64h-64v-64h-64z" />
    <glyph glyph-name="section" unicode="&#xa7;" horiz-adv-x="448" 
d="M64 -128v64h192v-64h-192zM0 -64v64h64v-64h-64zM256 -64v64h-64v64h-64v64h-64v64h-64v192h64v-128h64v-64h64v-64h64v-64h64v-128h-64zM256 128v128h-64v64h-64v64h-64v64h-64v128h64v-64h64v-64h64v-64h64v-64h64v-192h-64zM256 512v64h64v-64h-64zM64 576v64h192v-64
h-192z" />
    <glyph glyph-name="degree" unicode="&#xb0;" horiz-adv-x="384" 
d="M64 384v64h128v-64h-128zM0 448v128h64v-128h-64zM192 448v128h64v-128h-64zM64 576v64h128v-64h-128z" />
    <glyph glyph-name="quoteleft" unicode="&#x2018;" horiz-adv-x="256" 
d="M0 320v192h64v-64h64v-128h-128zM64 512v64h64v-64h-64z" />
    <glyph glyph-name="quoteright" unicode="&#x2019;" horiz-adv-x="256" 
d="M0 320v64h64v-64h-64zM64 384v64h-64v128h128v-192h-64z" />
    <glyph glyph-name="quotedblleft" unicode="&#x201c;" horiz-adv-x="448" 
d="M0 320v192h64v-64h64v-128h-128zM192 320v192h64v-64h64v-128h-128zM64 512v64h64v-64h-64zM256 512v64h64v-64h-64z" />
    <glyph glyph-name="quotedblright" unicode="&#x201d;" horiz-adv-x="448" 
d="M0 320v64h64v-64h-64zM192 320v64h64v-64h-64zM64 384v64h-64v128h128v-192h-64zM256 384v64h-64v128h128v-192h-64z" />
    <glyph glyph-name="trademark" unicode="&#x2122;" horiz-adv-x="704" 
d="M384 384v64h64v-64h-64zM64 320v192h-64v64h192v-64h-64v-192h-64zM256 320v256h64v-64h64v-64h-64v-128h-64zM512 320v128h-64v64h64v64h64v-256h-64z" />
    <glyph glyph-name="glyph1" horiz-adv-x="128" 
 />
    <glyph glyph-name="glyph2" horiz-adv-x="128" 
 />
  </font>
</defs>
</svg>
